<svg width="509" height="36" viewBox="0 0 509 36" fill="none" xmlns="http://www.w3.org/2000/svg">
<path d="M14.3548 14.0442C15.9015 14.1167 16.3003 15.4338 16.3244 16.0501H18.4873C18.3907 13.6576 16.6869 12.1955 14.3186 12.1955C11.6482 12.1955 9.6665 13.8751 9.6665 17.6692C9.6665 20.0134 10.7903 22.7926 14.3065 22.7926C16.989 22.7926 18.4269 20.7988 18.4632 19.228H16.3003C16.264 19.9409 15.7565 20.8955 14.3307 20.968C12.7478 20.9197 12.0832 19.6872 12.0832 17.6692C12.0832 14.1772 13.6298 14.0684 14.3548 14.0442ZM14.4998 5.41675C7.82984 5.41675 2.4165 10.8301 2.4165 17.5001C2.4165 24.1701 7.82984 29.5834 14.4998 29.5834C21.1698 29.5834 26.5832 24.1701 26.5832 17.5001C26.5832 10.8301 21.1698 5.41675 14.4998 5.41675ZM14.4998 27.1667C9.17109 27.1667 4.83317 22.8288 4.83317 17.5001C4.83317 12.1713 9.17109 7.83341 14.4998 7.83341C19.8286 7.83341 24.1665 12.1713 24.1665 17.5001C24.1665 22.8288 19.8286 27.1667 14.4998 27.1667Z" fill="white"/>
<path d="M37.224 24.248C39.256 22.616 40.848 21.28 42 20.24C43.152 19.184 44.12 18.088 44.904 16.952C45.704 15.8 46.104 14.672 46.104 13.568C46.104 12.528 45.848 11.712 45.336 11.12C44.84 10.512 44.032 10.208 42.912 10.208C41.824 10.208 40.976 10.552 40.368 11.24C39.776 11.912 39.456 12.816 39.408 13.952H37.296C37.36 12.16 37.904 10.776 38.928 9.8C39.952 8.824 41.272 8.336 42.888 8.336C44.536 8.336 45.84 8.792 46.8 9.704C47.776 10.616 48.264 11.872 48.264 13.472C48.264 14.8 47.864 16.096 47.064 17.36C46.28 18.608 45.384 19.712 44.376 20.672C43.368 21.616 42.08 22.72 40.512 23.984H48.768V25.808H37.224V24.248ZM51.2927 17.144C51.2927 14.392 51.7407 12.248 52.6367 10.712C53.5327 9.16 55.1007 8.384 57.3407 8.384C59.5647 8.384 61.1247 9.16 62.0207 10.712C62.9167 12.248 63.3647 14.392 63.3647 17.144C63.3647 19.944 62.9167 22.12 62.0207 23.672C61.1247 25.224 59.5647 26 57.3407 26C55.1007 26 53.5327 25.224 52.6367 23.672C51.7407 22.12 51.2927 19.944 51.2927 17.144ZM61.2047 17.144C61.2047 15.752 61.1087 14.576 60.9167 13.616C60.7407 12.64 60.3647 11.856 59.7887 11.264C59.2287 10.672 58.4127 10.376 57.3407 10.376C56.2527 10.376 55.4207 10.672 54.8447 11.264C54.2847 11.856 53.9087 12.64 53.7167 13.616C53.5407 14.576 53.4527 15.752 53.4527 17.144C53.4527 18.584 53.5407 19.792 53.7167 20.768C53.9087 21.744 54.2847 22.528 54.8447 23.12C55.4207 23.712 56.2527 24.008 57.3407 24.008C58.4127 24.008 59.2287 23.712 59.7887 23.12C60.3647 22.528 60.7407 21.744 60.9167 20.768C61.1087 19.792 61.2047 18.584 61.2047 17.144ZM66.099 24.248C68.131 22.616 69.723 21.28 70.875 20.24C72.027 19.184 72.995 18.088 73.779 16.952C74.579 15.8 74.979 14.672 74.979 13.568C74.979 12.528 74.723 11.712 74.211 11.12C73.715 10.512 72.907 10.208 71.787 10.208C70.699 10.208 69.851 10.552 69.243 11.24C68.651 11.912 68.331 12.816 68.283 13.952H66.171C66.235 12.16 66.779 10.776 67.803 9.8C68.827 8.824 70.147 8.336 71.763 8.336C73.411 8.336 74.715 8.792 75.675 9.704C76.651 10.616 77.139 11.872 77.139 13.472C77.139 14.8 76.739 16.096 75.939 17.36C75.155 18.608 74.259 19.712 73.251 20.672C72.243 21.616 70.955 22.72 69.387 23.984H77.643V25.808H66.099V24.248ZM79.5917 10.64V8.648H84.1037V26H81.8957V10.64H79.5917ZM104.022 26L98.3576 18.56V26H94.2536V9.152H98.3576V16.544L103.974 9.152H108.798L102.27 17.408L109.038 26H104.022ZM115.02 9.152V19.232C115.02 20.24 115.268 21.016 115.764 21.56C116.26 22.104 116.988 22.376 117.948 22.376C118.908 22.376 119.644 22.104 120.156 21.56C120.668 21.016 120.924 20.24 120.924 19.232V9.152H125.028V19.208C125.028 20.712 124.708 21.984 124.068 23.024C123.428 24.064 122.564 24.848 121.476 25.376C120.404 25.904 119.204 26.168 117.876 26.168C116.548 26.168 115.356 25.912 114.3 25.4C113.26 24.872 112.436 24.088 111.828 23.048C111.22 21.992 110.916 20.712 110.916 19.208V9.152H115.02ZM132.014 22.832H137.39V26H127.91V9.152H132.014V22.832ZM143.451 9.152V26H139.347V9.152H143.451ZM169.609 9.152L165.218 26H160.25L157.562 14.912L154.778 26H149.81L145.538 9.152H149.93L152.354 21.416L155.354 9.152H159.866L162.746 21.416L165.194 9.152H169.609ZM175.772 9.152V26H171.668V9.152H175.772ZM184.842 26.168C183.61 26.168 182.506 25.968 181.53 25.568C180.554 25.168 179.77 24.576 179.178 23.792C178.602 23.008 178.298 22.064 178.266 20.96H182.634C182.698 21.584 182.914 22.064 183.282 22.4C183.65 22.72 184.13 22.88 184.722 22.88C185.33 22.88 185.81 22.744 186.162 22.472C186.514 22.184 186.69 21.792 186.69 21.296C186.69 20.88 186.546 20.536 186.258 20.264C185.986 19.992 185.642 19.768 185.226 19.592C184.826 19.416 184.25 19.216 183.498 18.992C182.41 18.656 181.522 18.32 180.834 17.984C180.146 17.648 179.554 17.152 179.058 16.496C178.562 15.84 178.314 14.984 178.314 13.928C178.314 12.36 178.882 11.136 180.018 10.256C181.154 9.36 182.634 8.912 184.458 8.912C186.314 8.912 187.81 9.36 188.946 10.256C190.082 11.136 190.69 12.368 190.77 13.952H186.33C186.298 13.408 186.098 12.984 185.73 12.68C185.362 12.36 184.89 12.2 184.314 12.2C183.818 12.2 183.418 12.336 183.114 12.608C182.81 12.864 182.658 13.24 182.658 13.736C182.658 14.28 182.914 14.704 183.426 15.008C183.938 15.312 184.738 15.64 185.826 15.992C186.914 16.36 187.794 16.712 188.466 17.048C189.154 17.384 189.746 17.872 190.242 18.512C190.738 19.152 190.986 19.976 190.986 20.984C190.986 21.944 190.738 22.816 190.242 23.6C189.762 24.384 189.058 25.008 188.13 25.472C187.202 25.936 186.106 26.168 184.842 26.168ZM203.999 23.024H197.711L196.703 26H192.407L198.503 9.152H203.255L209.351 26H205.007L203.999 23.024ZM202.943 19.856L200.855 13.688L198.791 19.856H202.943ZM223.327 9.152V12.44H218.863V26H214.759V12.44H210.295V9.152H223.327ZM235.874 23.024H229.586L228.578 26H224.282L230.378 9.152H235.13L241.226 26H236.882L235.874 23.024ZM234.818 19.856L232.73 13.688L230.666 19.856H234.818ZM245.002 26.192C244.282 26.192 243.69 25.984 243.226 25.568C242.778 25.136 242.554 24.608 242.554 23.984C242.554 23.344 242.778 22.808 243.226 22.376C243.69 21.944 244.282 21.728 245.002 21.728C245.706 21.728 246.282 21.944 246.73 22.376C247.194 22.808 247.426 23.344 247.426 23.984C247.426 24.608 247.194 25.136 246.73 25.568C246.282 25.984 245.706 26.192 245.002 26.192ZM253.959 9.152V26H249.855V9.152H253.959ZM263.245 9.152C265.021 9.152 266.573 9.504 267.901 10.208C269.229 10.912 270.253 11.904 270.973 13.184C271.709 14.448 272.077 15.912 272.077 17.576C272.077 19.224 271.709 20.688 270.973 21.968C270.253 23.248 269.221 24.24 267.877 24.944C266.549 25.648 265.005 26 263.245 26H256.933V9.152H263.245ZM262.981 22.448C264.533 22.448 265.741 22.024 266.605 21.176C267.469 20.328 267.901 19.128 267.901 17.576C267.901 16.024 267.469 14.816 266.605 13.952C265.741 13.088 264.533 12.656 262.981 12.656H261.037V22.448H262.981ZM275.427 26.144C275.011 26.144 274.659 26 274.371 25.712C274.083 25.424 273.939 25.072 273.939 24.656C273.939 24.24 274.083 23.888 274.371 23.6C274.659 23.312 275.011 23.168 275.427 23.168C275.827 23.168 276.163 23.312 276.435 23.6C276.723 23.888 276.867 24.24 276.867 24.656C276.867 25.072 276.723 25.424 276.435 25.712C276.163 26 275.827 26.144 275.427 26.144ZM296.056 22.28H288.76L287.416 26H285.112L291.16 9.368H293.68L299.704 26H297.4L296.056 22.28ZM295.432 20.504L292.408 12.056L289.384 20.504H295.432ZM304.524 8.24V26H302.34V8.24H304.524ZM310.43 8.24V26H308.246V8.24H310.43ZM329.359 26L325.375 19.16H322.735V26H320.551V9.272H325.951C327.215 9.272 328.279 9.488 329.143 9.92C330.023 10.352 330.679 10.936 331.111 11.672C331.543 12.408 331.759 13.248 331.759 14.192C331.759 15.344 331.423 16.36 330.751 17.24C330.095 18.12 329.103 18.704 327.775 18.992L331.975 26H329.359ZM322.735 17.408H325.951C327.135 17.408 328.023 17.12 328.615 16.544C329.207 15.952 329.503 15.168 329.503 14.192C329.503 13.2 329.207 12.432 328.615 11.888C328.039 11.344 327.151 11.072 325.951 11.072H322.735V17.408ZM336.281 10.712C335.865 10.712 335.513 10.568 335.225 10.28C334.937 9.992 334.793 9.64 334.793 9.224C334.793 8.808 334.937 8.456 335.225 8.168C335.513 7.88 335.865 7.736 336.281 7.736C336.681 7.736 337.017 7.88 337.289 8.168C337.577 8.456 337.721 8.808 337.721 9.224C337.721 9.64 337.577 9.992 337.289 10.28C337.017 10.568 336.681 10.712 336.281 10.712ZM337.337 12.848V26H335.153V12.848H337.337ZM346.483 12.632C347.619 12.632 348.611 12.88 349.459 13.376C350.323 13.872 350.963 14.496 351.379 15.248V12.848H353.587V26.288C353.587 27.488 353.331 28.552 352.819 29.48C352.307 30.424 351.571 31.16 350.611 31.688C349.667 32.216 348.563 32.48 347.299 32.48C345.571 32.48 344.131 32.072 342.979 31.256C341.827 30.44 341.147 29.328 340.939 27.92H343.099C343.339 28.72 343.835 29.36 344.587 29.84C345.339 30.336 346.243 30.584 347.299 30.584C348.499 30.584 349.475 30.208 350.227 29.456C350.995 28.704 351.379 27.648 351.379 26.288V23.528C350.947 24.296 350.307 24.936 349.459 25.448C348.611 25.96 347.619 26.216 346.483 26.216C345.315 26.216 344.251 25.928 343.291 25.352C342.347 24.776 341.603 23.968 341.059 22.928C340.515 21.888 340.243 20.704 340.243 19.376C340.243 18.032 340.515 16.856 341.059 15.848C341.603 14.824 342.347 14.032 343.291 13.472C344.251 12.912 345.315 12.632 346.483 12.632ZM351.379 19.4C351.379 18.408 351.179 17.544 350.779 16.808C350.379 16.072 349.835 15.512 349.147 15.128C348.475 14.728 347.731 14.528 346.915 14.528C346.099 14.528 345.355 14.72 344.683 15.104C344.011 15.488 343.475 16.048 343.075 16.784C342.675 17.52 342.475 18.384 342.475 19.376C342.475 20.384 342.675 21.264 343.075 22.016C343.475 22.752 344.011 23.32 344.683 23.72C345.355 24.104 346.099 24.296 346.915 24.296C347.731 24.296 348.475 24.104 349.147 23.72C349.835 23.32 350.379 22.752 350.779 22.016C351.179 21.264 351.379 20.392 351.379 19.4ZM363.806 12.608C364.798 12.608 365.694 12.824 366.494 13.256C367.294 13.672 367.918 14.304 368.366 15.152C368.83 16 369.062 17.032 369.062 18.248V26H366.902V18.56C366.902 17.248 366.574 16.248 365.918 15.56C365.262 14.856 364.366 14.504 363.23 14.504C362.078 14.504 361.158 14.864 360.47 15.584C359.798 16.304 359.462 17.352 359.462 18.728V26H357.278V8.24H359.462V14.72C359.894 14.048 360.486 13.528 361.238 13.16C362.006 12.792 362.862 12.608 363.806 12.608ZM375.293 14.648V22.4C375.293 23.04 375.429 23.496 375.701 23.768C375.973 24.024 376.445 24.152 377.117 24.152H378.725V26H376.757C375.541 26 374.629 25.72 374.021 25.16C373.413 24.6 373.109 23.68 373.109 22.4V14.648H371.405V12.848H373.109V9.536H375.293V12.848H378.725V14.648H375.293ZM386.027 26.216C385.019 26.216 384.115 26.048 383.315 25.712C382.515 25.36 381.883 24.88 381.419 24.272C380.955 23.648 380.699 22.936 380.651 22.136H382.907C382.971 22.792 383.275 23.328 383.819 23.744C384.379 24.16 385.107 24.368 386.003 24.368C386.835 24.368 387.491 24.184 387.971 23.816C388.451 23.448 388.691 22.984 388.691 22.424C388.691 21.848 388.435 21.424 387.923 21.152C387.411 20.864 386.619 20.584 385.547 20.312C384.571 20.056 383.771 19.8 383.147 19.544C382.539 19.272 382.011 18.88 381.563 18.368C381.131 17.84 380.915 17.152 380.915 16.304C380.915 15.632 381.115 15.016 381.515 14.456C381.915 13.896 382.483 13.456 383.219 13.136C383.955 12.8 384.795 12.632 385.739 12.632C387.195 12.632 388.371 13 389.267 13.736C390.163 14.472 390.643 15.48 390.707 16.76H388.523C388.475 16.072 388.195 15.52 387.683 15.104C387.187 14.688 386.515 14.48 385.667 14.48C384.883 14.48 384.259 14.648 383.795 14.984C383.331 15.32 383.099 15.76 383.099 16.304C383.099 16.736 383.235 17.096 383.507 17.384C383.795 17.656 384.147 17.88 384.563 18.056C384.995 18.216 385.587 18.4 386.339 18.608C387.283 18.864 388.051 19.12 388.643 19.376C389.235 19.616 389.739 19.984 390.155 20.48C390.587 20.976 390.811 21.624 390.827 22.424C390.827 23.144 390.627 23.792 390.227 24.368C389.827 24.944 389.259 25.4 388.523 25.736C387.803 26.056 386.971 26.216 386.027 26.216ZM409.117 26L405.133 19.16H402.493V26H400.309V9.272H405.709C406.973 9.272 408.037 9.488 408.901 9.92C409.781 10.352 410.437 10.936 410.869 11.672C411.301 12.408 411.517 13.248 411.517 14.192C411.517 15.344 411.181 16.36 410.509 17.24C409.853 18.12 408.861 18.704 407.533 18.992L411.733 26H409.117ZM402.493 17.408H405.709C406.893 17.408 407.781 17.12 408.373 16.544C408.965 15.952 409.261 15.168 409.261 14.192C409.261 13.2 408.965 12.432 408.373 11.888C407.797 11.344 406.909 11.072 405.709 11.072H402.493V17.408ZM426.911 18.92C426.911 19.336 426.887 19.776 426.839 20.24H416.327C416.407 21.536 416.847 22.552 417.647 23.288C418.463 24.008 419.447 24.368 420.599 24.368C421.543 24.368 422.327 24.152 422.951 23.72C423.591 23.272 424.039 22.68 424.295 21.944H426.647C426.295 23.208 425.591 24.24 424.535 25.04C423.479 25.824 422.167 26.216 420.599 26.216C419.351 26.216 418.231 25.936 417.239 25.376C416.263 24.816 415.495 24.024 414.935 23C414.375 21.96 414.095 20.76 414.095 19.4C414.095 18.04 414.367 16.848 414.911 15.824C415.455 14.8 416.215 14.016 417.191 13.472C418.183 12.912 419.319 12.632 420.599 12.632C421.847 12.632 422.951 12.904 423.911 13.448C424.871 13.992 425.607 14.744 426.119 15.704C426.647 16.648 426.911 17.72 426.911 18.92ZM424.655 18.464C424.655 17.632 424.471 16.92 424.103 16.328C423.735 15.72 423.231 15.264 422.591 14.96C421.967 14.64 421.271 14.48 420.503 14.48C419.399 14.48 418.455 14.832 417.671 15.536C416.903 16.24 416.463 17.216 416.351 18.464H424.655ZM434.449 26.216C433.441 26.216 432.537 26.048 431.737 25.712C430.937 25.36 430.305 24.88 429.841 24.272C429.377 23.648 429.121 22.936 429.073 22.136H431.329C431.393 22.792 431.697 23.328 432.241 23.744C432.801 24.16 433.529 24.368 434.425 24.368C435.257 24.368 435.913 24.184 436.393 23.816C436.873 23.448 437.113 22.984 437.113 22.424C437.113 21.848 436.857 21.424 436.345 21.152C435.833 20.864 435.041 20.584 433.969 20.312C432.993 20.056 432.193 19.8 431.569 19.544C430.961 19.272 430.433 18.88 429.985 18.368C429.553 17.84 429.337 17.152 429.337 16.304C429.337 15.632 429.537 15.016 429.937 14.456C430.337 13.896 430.905 13.456 431.641 13.136C432.377 12.8 433.217 12.632 434.161 12.632C435.617 12.632 436.793 13 437.689 13.736C438.585 14.472 439.065 15.48 439.129 16.76H436.945C436.897 16.072 436.617 15.52 436.105 15.104C435.609 14.688 434.937 14.48 434.089 14.48C433.305 14.48 432.681 14.648 432.217 14.984C431.753 15.32 431.521 15.76 431.521 16.304C431.521 16.736 431.657 17.096 431.929 17.384C432.217 17.656 432.569 17.88 432.985 18.056C433.417 18.216 434.009 18.4 434.761 18.608C435.705 18.864 436.473 19.12 437.065 19.376C437.657 19.616 438.161 19.984 438.577 20.48C439.009 20.976 439.233 21.624 439.249 22.424C439.249 23.144 439.049 23.792 438.649 24.368C438.249 24.944 437.681 25.4 436.945 25.736C436.225 26.056 435.393 26.216 434.449 26.216ZM454.332 18.92C454.332 19.336 454.308 19.776 454.26 20.24H443.748C443.828 21.536 444.268 22.552 445.068 23.288C445.884 24.008 446.868 24.368 448.02 24.368C448.964 24.368 449.748 24.152 450.372 23.72C451.012 23.272 451.46 22.68 451.716 21.944H454.068C453.716 23.208 453.012 24.24 451.956 25.04C450.9 25.824 449.588 26.216 448.02 26.216C446.772 26.216 445.652 25.936 444.66 25.376C443.684 24.816 442.916 24.024 442.356 23C441.796 21.96 441.516 20.76 441.516 19.4C441.516 18.04 441.788 16.848 442.332 15.824C442.876 14.8 443.636 14.016 444.612 13.472C445.604 12.912 446.74 12.632 448.02 12.632C449.268 12.632 450.372 12.904 451.332 13.448C452.292 13.992 453.028 14.744 453.54 15.704C454.068 16.648 454.332 17.72 454.332 18.92ZM452.076 18.464C452.076 17.632 451.892 16.92 451.524 16.328C451.156 15.72 450.652 15.264 450.012 14.96C449.388 14.64 448.692 14.48 447.924 14.48C446.82 14.48 445.876 14.832 445.092 15.536C444.324 16.24 443.884 17.216 443.772 18.464H452.076ZM459.399 14.984C459.783 14.232 460.327 13.648 461.031 13.232C461.751 12.816 462.623 12.608 463.647 12.608V14.864H463.071C460.623 14.864 459.399 16.192 459.399 18.848V26H457.215V12.848H459.399V14.984ZM471.064 23.984L475.144 12.848H477.472L472.312 26H469.768L464.608 12.848H466.96L471.064 23.984ZM491.621 18.92C491.621 19.336 491.597 19.776 491.549 20.24H481.037C481.117 21.536 481.557 22.552 482.357 23.288C483.173 24.008 484.157 24.368 485.309 24.368C486.253 24.368 487.037 24.152 487.661 23.72C488.301 23.272 488.749 22.68 489.005 21.944H491.357C491.005 23.208 490.301 24.24 489.245 25.04C488.189 25.824 486.877 26.216 485.309 26.216C484.061 26.216 482.941 25.936 481.949 25.376C480.973 24.816 480.205 24.024 479.645 23C479.085 21.96 478.805 20.76 478.805 19.4C478.805 18.04 479.077 16.848 479.621 15.824C480.165 14.8 480.925 14.016 481.901 13.472C482.893 12.912 484.029 12.632 485.309 12.632C486.557 12.632 487.661 12.904 488.621 13.448C489.581 13.992 490.317 14.744 490.829 15.704C491.357 16.648 491.621 17.72 491.621 18.92ZM489.365 18.464C489.365 17.632 489.181 16.92 488.813 16.328C488.445 15.72 487.941 15.264 487.301 14.96C486.677 14.64 485.981 14.48 485.213 14.48C484.109 14.48 483.165 14.832 482.381 15.536C481.613 16.24 481.173 17.216 481.061 18.464H489.365ZM493.688 19.376C493.688 18.032 493.96 16.856 494.504 15.848C495.048 14.824 495.792 14.032 496.736 13.472C497.696 12.912 498.768 12.632 499.952 12.632C500.976 12.632 501.928 12.872 502.808 13.352C503.688 13.816 504.36 14.432 504.824 15.2V8.24H507.032V26H504.824V23.528C504.392 24.312 503.752 24.96 502.904 25.472C502.056 25.968 501.064 26.216 499.928 26.216C498.76 26.216 497.696 25.928 496.736 25.352C495.792 24.776 495.048 23.968 494.504 22.928C493.96 21.888 493.688 20.704 493.688 19.376ZM504.824 19.4C504.824 18.408 504.624 17.544 504.224 16.808C503.824 16.072 503.28 15.512 502.592 15.128C501.92 14.728 501.176 14.528 500.36 14.528C499.544 14.528 498.8 14.72 498.128 15.104C497.456 15.488 496.92 16.048 496.52 16.784C496.12 17.52 495.92 18.384 495.92 19.376C495.92 20.384 496.12 21.264 496.52 22.016C496.92 22.752 497.456 23.32 498.128 23.72C498.8 24.104 499.544 24.296 500.36 24.296C501.176 24.296 501.92 24.104 502.592 23.72C503.28 23.32 503.824 22.752 504.224 22.016C504.624 21.264 504.824 20.392 504.824 19.4Z" fill="white"/>
</svg>
